<svg width="634" height="292" viewBox="0 0 634 292" fill="none" xmlns="http://www.w3.org/2000/svg">
<path d="M123.345 291.869H248.204H444.494H569.353C608.142 279.851 623.362 268.753 631.492 233.85C640.784 155.318 626.011 132.873 557.158 121.426C511.173 14.8475 469.237 -6.66288 374.805 1.59255C330.51 12.5962 309.735 26.841 279.564 64.9996C252.502 48.8961 237.326 45.3084 211.037 49.875C165.631 64.4485 154.092 83.4138 139.025 121.426C74.9576 127.855 62.4012 150.874 53.6562 215.817C53.6562 262.936 73.9821 287.368 123.345 291.869Z" fill="url(#paint0_linear_4317_21009)"/>
<path d="M69.6888 291.869H194.548H390.838H515.697C554.486 279.851 569.706 268.753 577.836 233.85C587.128 155.318 572.355 132.873 503.501 121.426C457.517 14.8475 415.581 -6.66288 321.149 1.59255C276.853 12.5962 256.079 26.841 225.908 64.9996C198.846 48.8961 183.67 45.3084 157.38 49.875C111.974 64.4485 100.436 83.4138 85.3687 121.426C21.3013 127.855 8.74493 150.874 0 215.817C0 262.936 20.3259 287.368 69.6888 291.869Z" fill="url(#paint1_linear_4317_21009)"/>
<defs>
<linearGradient id="paint0_linear_4317_21009" x1="803" y1="-39" x2="343.827" y2="291.869" gradientUnits="userSpaceOnUse">
<stop stop-color="white"/>
<stop offset="1" stop-color="#59FFC6" stop-opacity="0"/>
</linearGradient>
<linearGradient id="paint1_linear_4317_21009" x1="290.171" y1="0" x2="290.171" y2="291.869" gradientUnits="userSpaceOnUse">
<stop stop-color="#41C791"/>
<stop offset="1" stop-color="#091518" stop-opacity="0.1"/>
</linearGradient>
</defs>
</svg>
