<svg width="110" height="22" viewBox="0 0 110 22" fill="none" xmlns="http://www.w3.org/2000/svg">
<g opacity="0.5">
<path opacity="0.5" d="M8.22917 5.69919C8.24898 5.7113 8.26879 5.72342 8.31237 5.74979C8.43943 5.80641 8.54274 5.8488 8.64605 5.89118C8.64605 5.89118 8.65382 5.90219 8.67277 5.91604C8.92167 6.02648 9.14964 6.12896 9.3819 6.21853C10.0267 6.46715 10.6686 6.45086 11.3036 6.17549C11.7538 5.98023 12.2046 5.7861 12.6513 5.58159C13.0188 5.41333 13.3896 5.38405 13.7751 5.49346C14.6405 5.73906 15.2565 6.35245 15.7461 7.1085C17.1012 9.20068 17.742 11.5463 17.754 14.0833C17.7566 14.6314 17.6568 15.1997 17.5029 15.7244C17.2648 16.5369 16.6468 16.8414 15.9015 16.5464C15.5067 16.3902 15.1465 16.1326 14.7707 15.9209C14.7707 15.9209 14.7671 15.9115 14.7519 15.8985C14.2331 15.4651 13.7368 15.0343 13.2243 14.6266C12.2758 13.8723 11.257 13.3189 10.0274 13.4016C9.15012 13.4607 8.33947 13.7087 7.6552 14.3326C7.6552 14.3326 7.6612 14.3393 7.64254 14.3404C7.24299 14.7105 6.8621 15.0792 6.4812 15.4481C6.4673 15.4494 6.4563 15.4561 6.42955 15.4846C6.39905 15.5196 6.38715 15.5386 6.37526 15.5575C6.36159 15.559 6.3507 15.5657 6.3241 15.5916C6.28657 15.6303 6.26756 15.6552 6.24855 15.6801C6.24855 15.6801 6.2449 15.6778 6.22749 15.6808C6.0249 15.8524 5.8397 16.0211 5.65449 16.1897C5.65449 16.1897 5.66725 16.1908 5.64564 16.193C5.60834 16.2092 5.59267 16.2232 5.56536 16.2393C5.53799 16.2487 5.52832 16.2613 5.5247 16.2793C5.5247 16.2793 5.5256 16.2802 5.51077 16.2804C5.48234 16.2951 5.46873 16.3094 5.45511 16.3239C5.45511 16.3239 5.43682 16.3266 5.4117 16.3352C5.14797 16.4384 4.91524 16.5591 4.66971 16.6232C3.79531 16.8516 3.28366 16.5437 2.99596 15.628C2.93104 15.4215 2.87746 15.2056 2.85449 14.9897C2.65241 13.0895 3.01244 11.2809 3.65766 9.50945C3.68381 9.45617 3.69494 9.41165 3.70749 9.35078C3.72093 9.30436 3.73296 9.27429 3.76048 9.23524C3.79554 9.15547 3.81508 9.0847 3.83707 9.00195C3.83952 8.98998 3.85216 8.96957 3.86698 8.96113C3.90214 8.88553 3.92248 8.8184 3.94583 8.7354C3.95342 8.7099 3.958 8.70029 3.9704 8.68418C3.9873 8.66649 3.99203 8.65349 3.99611 8.62465C4.00457 8.60242 4.00932 8.5942 4.02796 8.57799C4.05955 8.51926 4.07729 8.46849 4.0939 8.41677C4.0939 8.41677 4.09557 8.41641 4.11127 8.40909C4.14461 8.34707 4.16225 8.29237 4.18211 8.23781C4.18211 8.23781 4.1809 8.23491 4.19893 8.23241C4.27455 8.10259 4.33215 7.9753 4.39393 7.8315C4.43249 7.75825 4.46687 7.70151 4.51889 7.64062C4.5774 7.54944 4.61828 7.46238 4.66361 7.36283C4.67617 7.33402 4.68793 7.32176 4.71971 7.30842C4.76041 7.2522 4.78475 7.20107 4.8092 7.14992C4.8092 7.14992 4.80925 7.14965 4.81955 7.14158C4.84248 7.1204 4.85066 7.1046 4.85535 7.0892C4.85632 7.09226 4.85233 7.08743 4.86891 7.08302C4.91094 7.02835 4.93641 6.9781 4.96906 6.91133C5.0664 6.77339 5.15655 6.65198 5.2467 6.53056C5.2467 6.53056 5.25556 6.52983 5.27092 6.51892C5.36891 6.42974 5.45154 6.35146 5.54372 6.26856C5.56527 6.25516 5.57359 6.24339 5.58437 6.22103C5.5905 6.21345 5.60747 6.20504 5.62178 6.19895C5.6498 6.17673 5.66351 6.16061 5.6859 6.13068C5.74418 6.07762 5.79375 6.03837 5.85221 5.99641C5.87261 5.98739 5.88074 5.97778 5.89745 5.95264C5.93812 5.92326 5.96684 5.90609 6.00415 5.88708C6.02417 5.88035 6.0326 5.87199 6.05188 5.84715C6.15798 5.77455 6.25025 5.71493 6.35518 5.65487C6.38581 5.64882 6.39709 5.63627 6.4017 5.61679C6.4017 5.61679 6.39732 5.61815 6.41976 5.61794C6.68992 5.54667 6.93767 5.47563 7.20252 5.40955C7.27833 5.41143 7.33703 5.40834 7.41229 5.41538C7.56322 5.45977 7.69759 5.49403 7.83195 5.52828C7.85984 5.54229 7.88772 5.55631 7.94415 5.58696C8.05819 5.63546 8.14369 5.66732 8.22917 5.69919ZM13.5649 8.94312C13.6006 9.21744 13.7675 9.12675 13.9526 9.08001C14.003 9.07492 14.0534 9.06984 14.1442 9.06996C14.3532 9.07157 14.4158 8.94985 14.3812 8.70933C14.387 8.68594 14.3926 8.66255 14.4252 8.62223C14.4085 8.55347 14.3918 8.48471 14.3769 8.41516C14.3769 8.41516 14.3755 8.41666 14.3783 8.374C14.3695 8.05902 14.1266 8.07245 13.9394 8.03441C13.8732 8.02093 13.7898 8.1047 13.7125 8.14021C13.7125 8.14021 13.7157 8.14267 13.6933 8.14795C13.6786 8.1548 13.6679 8.16594 13.6415 8.20855C13.6111 8.24015 13.5807 8.27175 13.5143 8.31399C13.3502 8.5253 13.3692 8.73035 13.5592 8.90845C13.5592 8.90845 13.5691 8.90007 13.5649 8.94312ZM12.7907 9.62494C12.7907 9.62494 12.7908 9.62468 12.7818 9.58609C12.5341 9.49677 12.2873 9.40381 12.0365 9.32586C12.0187 9.32035 11.9308 9.44606 11.944 9.47556C12.0577 9.73083 11.9308 9.98172 11.9477 10.2326C11.9552 10.3436 11.9734 10.4537 11.9868 10.5641C12.0871 10.5363 12.1874 10.5085 12.3217 10.4886C12.3756 10.5107 12.4296 10.5328 12.4939 10.5674L12.5158 10.5717C12.5158 10.5717 12.5352 10.5591 12.5698 10.5477C12.6286 10.5341 12.6873 10.5206 12.7601 10.5036C12.7692 10.5 12.7771 10.4945 12.8068 10.4592C12.8344 10.4373 12.8621 10.4153 12.9233 10.3807C12.9453 10.3253 12.9673 10.27 12.9897 10.1922C12.9897 10.1922 13.0017 10.1739 13.0221 10.1421C13.1213 9.74416 13.0808 9.65315 12.7907 9.62494ZM6.81014 11.7493C6.91217 11.7554 7.01422 11.7668 7.11625 11.7667C8.21223 11.7653 9.13495 10.802 9.15736 9.63759C9.18086 8.4173 8.31722 7.41747 7.19698 7.36804C6.1165 7.32038 5.21221 8.1449 5.07059 9.30689C4.93096 10.4525 5.65952 11.4985 6.81014 11.7493ZM13.5402 11.2914C13.4336 11.6482 13.5342 11.9138 13.8059 11.9934C14.025 12.0575 14.2657 11.936 14.355 11.7163C14.4429 11.5001 14.3732 11.2563 14.1835 11.1162C13.985 10.9696 13.7717 11.0174 13.5402 11.2914ZM15.7367 9.91343C15.6499 9.56543 15.2725 9.50439 15.081 9.6204C14.8596 9.75463 14.7745 10.0576 14.9073 10.3024C15.0172 10.505 15.1902 10.5861 15.4026 10.5335C15.6565 10.4705 15.7523 10.2999 15.7367 9.91343Z" fill="#D0DCE7"/>
<path d="M4.01411 8.58597C4.00934 8.5942 4.00457 8.60243 3.98657 8.62967C3.96171 8.66029 3.95811 8.67428 3.96256 8.69067C3.958 8.7003 3.95343 8.70991 3.93382 8.7472C3.89658 8.83978 3.87437 8.90468 3.85218 8.96958C3.85218 8.96958 3.83952 8.98999 3.82432 9.01423C3.78774 9.10705 3.76637 9.17564 3.74498 9.24422C3.73296 9.27429 3.72095 9.30437 3.6956 9.36238C3.66906 9.43294 3.65584 9.47558 3.64262 9.51823C3.01244 11.2809 2.65242 13.0895 2.85449 14.9897C2.87746 15.2056 2.93104 15.4215 2.99596 15.6281C3.28367 16.5437 3.79531 16.8516 4.66972 16.6232C4.91524 16.5591 5.14798 16.4384 5.40521 16.3423C5.31059 16.4307 5.20778 16.5458 5.08218 16.6059C4.6304 16.8218 4.14872 16.8538 3.68343 16.7082C3.19276 16.5547 2.99308 16.0984 2.86925 15.605C2.62631 14.6372 2.6198 13.6571 2.75829 12.6734C2.80224 12.3613 2.88756 12.056 2.93573 11.7443C2.95139 11.6428 2.90919 11.5311 2.88532 11.3688C2.9661 11.14 3.23718 10.9016 3.0968 10.5325C3.08559 10.503 3.12257 10.4507 3.14021 10.4105C3.2481 10.1646 3.3728 9.92566 3.46086 9.67194C3.54846 9.41956 3.59316 9.1503 3.67105 8.89346C3.69141 8.82636 3.76528 8.778 3.81419 8.72146C3.78741 8.61025 3.76089 8.5002 3.71841 8.32385C3.82872 8.41607 3.88678 8.46458 3.96785 8.5188C3.99087 8.52449 4.0036 8.53537 4.00559 8.54817C4.00757 8.56097 4.01411 8.58597 4.01411 8.58597Z" fill="#4292E9"/>
<path d="M6.34245 5.65535C6.25018 5.71498 6.15792 5.7746 6.04219 5.84628C6.00487 5.86319 5.99712 5.8734 5.99548 5.88896C5.96676 5.90613 5.93806 5.92331 5.8876 5.95354C5.85271 5.97296 5.84517 5.98382 5.84327 5.99918C5.79369 6.03842 5.7441 6.07767 5.67075 6.13558C5.6338 6.17121 5.6206 6.18815 5.60741 6.20509C5.60741 6.20509 5.59044 6.2135 5.57326 6.22336C5.5416 6.24201 5.53427 6.25534 5.53411 6.27323C5.45148 6.35151 5.36885 6.42979 5.27118 6.51421C5.39099 6.3272 5.51767 6.12651 5.66382 5.94381C5.74735 5.83938 5.85282 5.74316 5.96651 5.68224C6.06575 5.62907 6.19032 5.63052 6.32337 5.61987C6.34303 5.63192 6.34245 5.65535 6.34245 5.65535Z" fill="#4292E9"/>
<path d="M4.50125 7.64497C4.46687 7.70172 4.43249 7.75848 4.3797 7.84285C4.30115 7.99202 4.24102 8.11357 4.18089 8.23513C4.18089 8.23513 4.18432 8.23817 4.16969 8.24891C4.13522 8.31197 4.11539 8.3643 4.09557 8.41663C4.09557 8.41663 4.09277 8.41601 4.08202 8.4258C4.0487 8.46892 4.02615 8.50225 4.00359 8.53557C4.00359 8.53557 3.99086 8.52471 3.98438 8.51925C3.97791 8.36011 3.97791 8.20642 3.97791 8.05275C3.99264 8.06657 4.00739 8.08039 4.02214 8.09421C4.16812 7.91 4.31411 7.72581 4.48153 7.53856C4.50294 7.53552 4.51618 7.54752 4.51336 7.56378C4.50745 7.60167 4.50434 7.62331 4.50125 7.64497Z" fill="#4292E9"/>
<path d="M5.22856 6.52576C5.15649 6.65204 5.06634 6.77346 4.95506 6.91967C4.90672 6.99213 4.87949 7.03981 4.85227 7.0875C4.85227 7.0875 4.85625 7.09233 4.84301 7.09527C4.8229 7.11538 4.81605 7.13256 4.80918 7.14972C4.80918 7.14972 4.80923 7.14998 4.79698 7.15637C4.76454 7.18202 4.74436 7.20127 4.71739 7.21407C4.71059 7.20762 4.69708 7.19463 4.69708 7.19463C4.72567 7.08963 4.7265 6.95652 4.7887 6.88559C4.91131 6.7458 5.06794 6.64047 5.22856 6.52576Z" fill="#4292E9"/>
<path d="M14.5825 5.75024C14.373 5.6655 14.163 5.55832 13.9347 5.44545C14.0971 5.44689 14.2818 5.43332 14.4562 5.47307C14.5123 5.48588 14.5408 5.63891 14.5825 5.75024Z" fill="#2888F0"/>
<path d="M4.70331 7.3137C4.68791 7.32194 4.67615 7.33421 4.65042 7.37181C4.59393 7.44457 4.55504 7.49602 4.51615 7.54749C4.51615 7.54749 4.50292 7.53549 4.49615 7.52946C4.54798 7.419 4.60656 7.31452 4.68115 7.20241C4.69712 7.19475 4.71063 7.20774 4.71355 7.22966C4.71209 7.27228 4.7077 7.29299 4.70331 7.3137Z" fill="#4292E9"/>
<path d="M7.45834 5.37383C7.46272 5.38687 7.44928 5.39044 7.41576 5.39971C7.33698 5.4085 7.27828 5.41159 7.20247 5.40972C7.15598 5.39952 7.1266 5.39429 7.07501 5.38562C7.18204 5.37624 7.31128 5.3703 7.45834 5.37383Z" fill="#4292E9"/>
<path d="M8.64202 5.81405C8.602 5.80166 8.55859 5.77342 8.50446 5.73364C8.54203 5.74748 8.59033 5.77283 8.64202 5.81405Z" fill="#4292E9"/>
<path d="M5.57929 16.4839C5.58401 16.4945 5.58105 16.5049 5.5781 16.5154C5.57594 16.5048 5.57378 16.4942 5.57929 16.4839Z" fill="#4292E9"/>
<path d="M5.57703 16.2374C5.59269 16.2233 5.60836 16.2093 5.63943 16.1932C5.63904 16.2178 5.62325 16.2447 5.59268 16.266C5.5779 16.2605 5.57703 16.2374 5.57703 16.2374Z" fill="#4292E9"/>
<path d="M6.43454 5.51599C6.4346 5.52175 6.42456 5.53237 6.40475 5.54848C6.40417 5.54235 6.41398 5.53131 6.43454 5.51599Z" fill="#4292E9"/>
<path d="M6.78805 11.7452C5.65956 11.4986 4.931 10.4526 5.07062 9.30701C5.21225 8.14502 6.11653 7.3205 7.19701 7.36818C8.31725 7.41759 9.1809 8.41744 9.1574 9.63771C9.13498 10.8021 8.21227 11.7655 7.11628 11.7668C7.01426 11.7669 6.91221 11.7555 6.78805 11.7452ZM6.95424 10.7787C7.01369 10.7814 7.07322 10.7878 7.13257 10.7862C7.64204 10.7725 8.07102 10.4046 8.21085 9.86306C8.33671 9.37563 8.1266 8.82099 7.70691 8.53281C7.29661 8.25109 6.75115 8.28927 6.37598 8.63465C6.03602 8.94761 5.90823 9.35208 5.99956 9.81767C6.10309 10.3454 6.42649 10.6531 6.95424 10.7787Z" fill="#2B8CF6"/>
<path d="M13.55 11.2738C13.7717 11.0174 13.985 10.9696 14.1835 11.1162C14.3732 11.2563 14.4429 11.5001 14.355 11.7163C14.2657 11.936 14.025 12.0575 13.8059 11.9934C13.5341 11.9138 13.4336 11.6482 13.55 11.2738Z" fill="#348DEF"/>
<path d="M13.0017 10.174C13.0017 10.174 12.9897 10.1923 12.9763 10.2142C12.9384 10.2886 12.9141 10.3411 12.8898 10.3935C12.8622 10.4155 12.8346 10.4374 12.7873 10.4701C12.755 10.4844 12.7478 10.4932 12.7461 10.5071C12.6874 10.5207 12.6286 10.5343 12.5399 10.5489C12.5011 10.5517 12.4923 10.5534 12.4835 10.555C12.4296 10.5329 12.3757 10.5108 12.2947 10.4701C12.0848 10.2597 12.0135 10.0401 12.1641 9.79525C12.3199 9.54192 12.5463 9.53056 12.791 9.62478C12.791 9.62478 12.7908 9.62505 12.799 9.6418C12.872 9.83035 12.9369 10.0022 13.0017 10.174Z" fill="#348DEF"/>
<path d="M14.3984 8.6392C14.3926 8.66258 14.387 8.68597 14.3685 8.73979C14.2718 8.86841 14.1877 8.9666 14.1037 9.0648C14.0534 9.06989 14.003 9.07497 13.9175 9.0765C13.7779 9.01533 13.6735 8.95771 13.5692 8.9001C13.5692 8.9001 13.5592 8.9085 13.5594 8.88286C13.5565 8.67259 13.5533 8.488 13.5502 8.30339C13.5807 8.2718 13.6111 8.2402 13.6632 8.19422C13.7012 8.1733 13.7115 8.16093 13.7157 8.14272C13.7157 8.14272 13.7125 8.14026 13.7324 8.14158C14.0287 8.05335 14.2263 8.17117 14.3755 8.41671C14.3755 8.41671 14.3769 8.41521 14.3745 8.43816C14.3807 8.52048 14.3896 8.57984 14.3984 8.6392Z" fill="#348DEE"/>
<path d="M12.7863 9.60551C12.5462 9.53057 12.3198 9.54194 12.164 9.79526C12.0134 10.0401 12.0847 10.2597 12.2776 10.4662C12.1873 10.5086 12.087 10.5364 11.9867 10.5643C11.9733 10.4538 11.9551 10.3437 11.9477 10.2328C11.9307 9.98184 12.0576 9.73093 11.9439 9.47568C11.9308 9.44618 12.0186 9.32045 12.0364 9.32598C12.2872 9.40393 12.534 9.4969 12.7863 9.60551Z" fill="#E9F8FA"/>
<path d="M15.7415 9.93478C15.7523 10.3001 15.6565 10.4706 15.4026 10.5336C15.1903 10.5863 15.0171 10.5052 14.9073 10.3026C14.7746 10.0578 14.8596 9.75481 15.081 9.62059C15.2725 9.50457 15.65 9.56561 15.7415 9.93478ZM15.1598 9.70843C14.991 9.80849 14.8884 9.9694 14.973 10.1583C15.0268 10.2786 15.1725 10.4161 15.2839 10.4233C15.3925 10.4303 15.5524 10.3087 15.6149 10.1957C15.7607 9.93207 15.5525 9.69377 15.1598 9.70843Z" fill="#4B94E1"/>
<path d="M14.3769 8.39533C14.2264 8.17111 14.0287 8.05329 13.7332 8.14346C13.7897 8.10469 13.8731 8.02094 13.9395 8.03441C14.1265 8.07246 14.3695 8.05902 14.3769 8.39533Z" fill="#D6F0FD"/>
<path d="M13.012 10.158C12.9369 10.0021 12.872 9.83027 12.7991 9.6416C13.0808 9.65318 13.1215 9.74418 13.012 10.158Z" fill="#E9F8FA"/>
<path d="M13.5322 8.30872C13.5533 8.488 13.5565 8.67261 13.5642 8.87827C13.3692 8.7304 13.3502 8.52535 13.5322 8.30872Z" fill="#D6F0FD"/>
<path d="M14.124 9.06747C14.1877 8.96667 14.2718 8.86848 14.3681 8.75806C14.4158 8.94998 14.3532 9.07168 14.124 9.06747Z" fill="#D6F0FD"/>
<path d="M13.567 8.92175C13.6735 8.95783 13.7777 9.01545 13.8989 9.08098C13.7675 9.12692 13.6006 9.2176 13.567 8.92175Z" fill="#D6F0FD"/>
<path d="M4.19885 8.23254C4.24096 8.11349 4.30109 7.99193 4.37544 7.85925C4.33208 7.97544 4.27448 8.10274 4.19885 8.23254Z" fill="#D0EFFE"/>
<path d="M4.51342 7.5637C4.55512 7.496 4.59402 7.44454 4.64606 7.38428C4.61833 7.46253 4.57745 7.54959 4.51895 7.64077C4.50441 7.62324 4.5075 7.6016 4.51342 7.5637Z" fill="#D0EFFE"/>
<path d="M14.4117 8.63067C14.3894 8.57977 14.3806 8.52041 14.3734 8.43848C14.3917 8.48469 14.4085 8.55345 14.4117 8.63067Z" fill="#D6F0FD"/>
<path d="M3.86688 8.96124C3.87428 8.90479 3.89648 8.83989 3.9307 8.76318C3.92238 8.81851 3.90204 8.88565 3.86688 8.96124Z" fill="#D0EFFE"/>
<path d="M3.76038 9.23541C3.76625 9.1758 3.78763 9.1072 3.82177 9.02637C3.81498 9.08487 3.79544 9.15564 3.76038 9.23541Z" fill="#D0EFFE"/>
<path d="M4.11127 8.4092C4.1154 8.3642 4.13522 8.31187 4.16747 8.24866C4.16225 8.29249 4.14461 8.34718 4.11127 8.4092Z" fill="#D0EFFE"/>
<path d="M12.9066 10.3873C12.9142 10.3411 12.9385 10.2886 12.9761 10.2255C12.9674 10.2701 12.9454 10.3255 12.9066 10.3873Z" fill="#E9F8FA"/>
<path d="M4.71972 7.30847C4.70773 7.29285 4.71212 7.27216 4.72038 7.23597C4.74444 7.20125 4.76461 7.182 4.79695 7.15637C4.78476 7.20113 4.76042 7.25225 4.71972 7.30847Z" fill="#D0EFFE"/>
<path d="M4.86884 7.08306C4.87949 7.03979 4.90671 6.99211 4.94787 6.93616C4.93633 6.97815 4.91087 7.02839 4.86884 7.08306Z" fill="#D0EFFE"/>
<path d="M3.6577 9.50953C3.65587 9.47565 3.66908 9.43301 3.6942 9.37878C3.69498 9.41173 3.68386 9.45624 3.6577 9.50953Z" fill="#D0EFFE"/>
<path d="M4.00555 8.54824C4.02612 8.50211 4.04868 8.46878 4.08313 8.42664C4.07727 8.46857 4.05953 8.51934 4.02794 8.57806C4.01407 8.58604 4.00755 8.56104 4.00555 8.54824Z" fill="#D0EFFE"/>
<path d="M5.62177 6.19901C5.62066 6.18816 5.63384 6.17121 5.66212 6.14941C5.66349 6.16068 5.64979 6.17679 5.62177 6.19901Z" fill="#D0EFFE"/>
<path d="M6.00423 5.88712C5.99727 5.87339 6.00502 5.86319 6.02849 5.85925C6.03267 5.87203 6.02424 5.8804 6.00423 5.88712Z" fill="#D0EFFE"/>
<path d="M5.85217 5.99652C5.8452 5.98389 5.85273 5.97303 5.87565 5.96582C5.88071 5.97788 5.87257 5.9875 5.85217 5.99652Z" fill="#D0EFFE"/>
<path d="M12.4886 10.5612C12.4922 10.5533 12.501 10.5516 12.5225 10.5546C12.5352 10.5591 12.5158 10.5718 12.5158 10.5718C12.5158 10.5718 12.4938 10.5675 12.4886 10.5612Z" fill="#E9F8FA"/>
<path d="M12.753 10.5053C12.7477 10.4931 12.7549 10.4843 12.7757 10.4839C12.7771 10.4945 12.7691 10.5001 12.753 10.5053Z" fill="#E9F8FA"/>
<path d="M5.54366 6.26862C5.53427 6.25535 5.5416 6.24201 5.56713 6.23096C5.57352 6.24344 5.5652 6.25523 5.54366 6.26862Z" fill="#D0EFFE"/>
<path d="M4.81958 7.14172C4.81614 7.13261 4.82301 7.11545 4.84213 7.09229C4.85069 7.10474 4.84251 7.12053 4.81958 7.14172Z" fill="#D0EFFE"/>
<path d="M13.7045 8.14551C13.7114 8.16107 13.7012 8.17345 13.6728 8.18079C13.6679 8.16615 13.6787 8.155 13.7045 8.14551Z" fill="#D6F0FD"/>
<path d="M3.97041 8.68432C3.95813 8.67442 3.96171 8.66042 3.98291 8.6438C3.99205 8.65362 3.98732 8.66664 3.97041 8.68432Z" fill="#D0EFFE"/>
<path d="M6.93216 10.7759C6.42636 10.6531 6.10296 10.3454 5.99944 9.81762C5.90811 9.35203 6.0359 8.94756 6.37585 8.63459C6.75103 8.28922 7.29649 8.25102 7.70679 8.53276C8.12648 8.82093 8.33659 9.37557 8.21073 9.86299C8.07089 10.4045 7.64191 10.7725 7.13245 10.7861C7.0731 10.7877 7.01357 10.7813 6.93216 10.7759Z" fill="#F6FCFD"/>
<path d="M15.1786 9.70058C15.5525 9.69374 15.7606 9.93204 15.6148 10.1956C15.5524 10.3086 15.3925 10.4303 15.2838 10.4232C15.1725 10.416 15.0268 10.2785 14.973 10.1583C14.8883 9.96935 14.9909 9.80844 15.1786 9.70058Z" fill="#238AF8"/>
</g>
<path opacity="0.5" d="M25.85 16.6375C25.1507 16.6375 24.507 16.5183 23.9186 16.28C23.3388 16.0325 22.8314 15.6888 22.3965 15.2488C21.9616 14.7996 21.6248 14.2725 21.386 13.6675C21.1472 13.0625 21.0279 12.4025 21.0279 11.6875C21.0279 10.9725 21.1472 10.3125 21.386 9.70755C21.6248 9.10255 21.9616 8.58005 22.3965 8.14005C22.84 7.69088 23.3558 7.34713 23.9442 7.1088C24.5325 6.8613 25.1763 6.73755 25.8756 6.73755C26.6344 6.73755 27.3167 6.87047 27.9221 7.1363C28.536 7.40213 29.0519 7.79172 29.4698 8.30505L28.4209 9.40505C28.0713 9.02922 27.6918 8.75422 27.2825 8.58005C26.8818 8.39672 26.4384 8.30505 25.9523 8.30505C25.4833 8.30505 25.0484 8.38755 24.6477 8.55255C24.2469 8.71755 23.9016 8.9513 23.6116 9.2538C23.3216 9.5563 23.0958 9.9138 22.9337 10.3263C22.7802 10.7388 22.7035 11.1925 22.7035 11.6875C22.7035 12.1734 22.7802 12.6225 22.9337 13.035C23.0958 13.4475 23.3216 13.8096 23.6116 14.1213C23.9016 14.4238 24.2426 14.6575 24.6349 14.8225C25.0272 14.9875 25.462 15.07 25.9395 15.07C26.383 15.07 26.8093 14.9968 27.2186 14.85C27.6365 14.6943 28.033 14.4375 28.4081 14.08L29.3546 15.4138C28.8856 15.8171 28.34 16.1243 27.7174 16.335C27.1035 16.5368 26.4809 16.6375 25.85 16.6375ZM27.7814 15.18V11.5775H29.3546V15.4138L27.7814 15.18ZM31.5477 16.5V6.87505H35.2315C36.0245 6.87505 36.7024 7.01255 37.2652 7.28755C37.8365 7.56255 38.2756 7.95672 38.5826 8.47005C38.8896 8.98338 39.0431 9.59297 39.0431 10.2988C39.0431 11.0046 38.8896 11.6142 38.5826 12.1275C38.2756 12.6317 37.8365 13.0213 37.2652 13.2963C36.7024 13.5621 36.0245 13.695 35.2315 13.695H32.4687L33.2105 12.8838V16.5H31.5477ZM37.4059 16.5L35.1419 13.0075H36.9198L39.1966 16.5H37.4059ZM33.2105 13.0763L32.4687 12.2238H35.1547C35.888 12.2238 36.438 12.0542 36.8047 11.715C37.1799 11.3759 37.3675 10.9038 37.3675 10.2988C37.3675 9.68463 37.1799 9.21255 36.8047 8.88255C36.438 8.55255 35.888 8.38755 35.1547 8.38755H32.4687L33.2105 7.50755V13.0763ZM42.4384 10.8763H46.8895V12.3475H42.4384V10.8763ZM42.5663 15.0013H47.6186V16.5H40.9035V6.87505H47.4395V8.3738H42.5663V15.0013ZM49.4722 16.5V6.87505H50.8408L56.456 14.2863H55.778V6.87505H57.428V16.5H56.0594L50.4443 9.0888H51.1222V16.5H49.4722ZM64.0225 16.6375C63.3233 16.6375 62.6795 16.5138 62.0911 16.2663C61.5028 16.0188 60.9912 15.675 60.5563 15.235C60.1214 14.7858 59.7846 14.2633 59.5458 13.6675C59.307 13.0625 59.1877 12.4025 59.1877 11.6875C59.1877 10.9725 59.307 10.3171 59.5458 9.7213C59.7846 9.1163 60.1214 8.5938 60.5563 8.1538C60.9912 7.70463 61.5028 7.3563 62.0911 7.1088C62.6795 6.8613 63.3191 6.73755 64.0097 6.73755C64.709 6.73755 65.3486 6.8613 65.9284 7.1088C66.5167 7.3563 67.0284 7.70463 67.4632 8.1538C67.8981 8.5938 68.2349 9.1163 68.4737 9.7213C68.7125 10.3171 68.8318 10.9725 68.8318 11.6875C68.8318 12.4025 68.7125 13.0625 68.4737 13.6675C68.2349 14.2725 67.8981 14.795 67.4632 15.235C67.0284 15.675 66.5167 16.0188 65.9284 16.2663C65.3486 16.5138 64.7132 16.6375 64.0225 16.6375ZM64.0097 15.07C64.4616 15.07 64.8795 14.9875 65.2632 14.8225C65.647 14.6575 65.9795 14.4238 66.2609 14.1213C66.5423 13.8096 66.7598 13.4521 66.9132 13.0488C67.0753 12.6363 67.1563 12.1825 67.1563 11.6875C67.1563 11.1925 67.0753 10.7434 66.9132 10.34C66.7598 9.92755 66.5423 9.57005 66.2609 9.26755C65.9795 8.95588 65.647 8.71755 65.2632 8.55255C64.8795 8.38755 64.4616 8.30505 64.0097 8.30505C63.5579 8.30505 63.14 8.38755 62.7563 8.55255C62.3811 8.71755 62.0486 8.95588 61.7586 9.26755C61.4772 9.57005 61.2555 9.92755 61.0935 10.34C60.94 10.7434 60.8632 11.1925 60.8632 11.6875C60.8632 12.1734 60.94 12.6225 61.0935 13.035C61.2555 13.4475 61.4772 13.8096 61.7586 14.1213C62.04 14.4238 62.3725 14.6575 62.7563 14.8225C63.14 14.9875 63.5579 15.07 64.0097 15.07ZM73.37 16.6375C72.6707 16.6375 72.0014 16.5321 71.3618 16.3213C70.7223 16.1013 70.2149 15.8218 69.8398 15.4825L70.4153 14.0938C70.7735 14.3963 71.2168 14.6483 71.7456 14.85C72.2742 15.0518 72.8156 15.1525 73.37 15.1525C73.8389 15.1525 74.2184 15.0975 74.5084 14.9875C74.7982 14.8775 75.0114 14.7308 75.1479 14.5475C75.2842 14.355 75.3525 14.1396 75.3525 13.9013C75.3525 13.608 75.2544 13.3742 75.0584 13.2C74.8621 13.0167 74.6063 12.8746 74.2909 12.7738C73.9839 12.6638 73.6386 12.563 73.2549 12.4713C72.8796 12.3796 72.5002 12.2742 72.1165 12.155C71.7412 12.0267 71.3959 11.8663 71.0804 11.6738C70.7735 11.4721 70.5219 11.2063 70.3258 10.8763C70.1296 10.5463 70.0316 10.1246 70.0316 9.6113C70.0316 9.0888 70.1595 8.61213 70.4153 8.1813C70.6796 7.7413 71.0761 7.39297 71.6049 7.1363C72.1421 6.87047 72.82 6.73755 73.6386 6.73755C74.1758 6.73755 74.7087 6.81088 75.2374 6.95755C75.7661 7.10422 76.2265 7.31505 76.6188 7.59005L76.0944 8.9788C75.6935 8.72213 75.28 8.53422 74.8537 8.41505C74.4273 8.28672 74.018 8.22255 73.6258 8.22255C73.1653 8.22255 72.7901 8.28213 72.5002 8.4013C72.2188 8.52047 72.0098 8.6763 71.8735 8.8688C71.7456 9.0613 71.6816 9.2813 71.6816 9.5288C71.6816 9.82213 71.7754 10.0605 71.963 10.2438C72.1591 10.418 72.4107 10.5555 72.7177 10.6563C73.0331 10.7571 73.3828 10.858 73.7665 10.9588C74.1502 11.0505 74.5296 11.1559 74.9049 11.275C75.2886 11.3942 75.6339 11.55 75.9409 11.7425C76.2563 11.935 76.5079 12.1963 76.6956 12.5263C76.8917 12.8563 76.9898 13.2734 76.9898 13.7775C76.9898 14.2908 76.8575 14.7675 76.5932 15.2075C76.3374 15.6383 75.9409 15.9868 75.4037 16.2525C74.8665 16.5093 74.1886 16.6375 73.37 16.6375ZM80.7489 16.5L77.7815 6.87505H79.5082L82.1559 15.5788H81.2989L84.0489 6.87505H85.5838L88.2571 15.5788H87.4257L90.1373 6.87505H91.7234L88.7559 16.5H86.9908L84.5478 8.6488H85.0082L82.5268 16.5H80.7489ZM91.5245 16.5L95.5535 6.87505H97.1907L101.233 16.5H99.4931L96.0268 7.8238H96.6919L93.2384 16.5H91.5245ZM93.3791 14.2725L93.8268 12.87H98.6617L99.1093 14.2725H93.3791ZM102.371 16.5V6.87505H106.055C106.848 6.87505 107.526 7.01255 108.089 7.28755C108.66 7.56255 109.099 7.95672 109.406 8.47005C109.713 8.98338 109.867 9.59297 109.867 10.2988C109.867 11.0046 109.713 11.6142 109.406 12.1275C109.099 12.6409 108.66 13.035 108.089 13.31C107.526 13.585 106.848 13.7225 106.055 13.7225H103.292L104.034 12.8838V16.5H102.371ZM104.034 13.0763L103.292 12.21H105.978C106.711 12.21 107.261 12.045 107.628 11.715C108.003 11.3759 108.191 10.9038 108.191 10.2988C108.191 9.68463 108.003 9.21255 107.628 8.88255C107.261 8.55255 106.711 8.38755 105.978 8.38755H103.292L104.034 7.50755V13.0763Z" fill="#D0DCE7"/>
</svg>
