<svg width="110" height="22" viewBox="0 0 110 22" fill="none" xmlns="http://www.w3.org/2000/svg">
<path opacity="0.5" d="M36.0305 6.60001H38.533V15.5833H36.0305V6.60001ZM29.062 15.5833H26.5595V6.60001H29.062V15.5833ZM36.223 11.7333H28.8503V10.3088H36.223V11.7333ZM44.4538 10.3345H51.1528V11.7077H44.4538V10.3345ZM44.6463 14.1845H52.25V15.5833H42.1438V6.60001H51.9805V7.99885H44.6463V14.1845ZM55.0397 15.5833V6.60001H60.5837C61.7772 6.60001 62.7975 6.72835 63.6445 6.98501C64.5043 7.24168 65.1652 7.60957 65.6272 8.08868C66.0892 8.56779 66.3202 9.13673 66.3202 9.79551C66.3202 10.4543 66.0892 11.0232 65.6272 11.5023C65.1652 11.9815 64.5043 12.3493 63.6445 12.606C62.7975 12.8627 61.7772 12.991 60.5837 12.991H56.4257L57.5422 12.2082V15.5833H55.0397ZM57.5422 12.3878L56.4257 11.5793H60.4682C61.572 11.5793 62.3997 11.4253 62.9515 11.1173C63.5162 10.8008 63.7985 10.3602 63.7985 9.79551C63.7985 9.22232 63.5162 8.78168 62.9515 8.47368C62.3997 8.16568 61.572 8.01168 60.4682 8.01168H56.4257L57.5422 7.19035V12.3878ZM71.1581 15.5833V8.01168H66.692V6.60001H78.1266V8.01168H73.6606V15.5833H71.1581ZM86.1306 15.7117C85.0783 15.7117 84.1093 15.5962 83.2238 15.3652C82.3383 15.1342 81.5683 14.8133 80.9138 14.4027C80.2593 13.9835 79.7525 13.4958 79.3931 12.9397C79.0338 12.375 78.8541 11.759 78.8541 11.0917C78.8541 10.4243 79.0338 9.81265 79.3931 9.25651C79.7525 8.69185 80.2593 8.20418 80.9138 7.79351C81.5683 7.37429 82.3383 7.04918 83.2238 6.81818C84.1093 6.58718 85.0718 6.47168 86.1113 6.47168C87.1637 6.47168 88.1262 6.58718 88.9988 6.81818C89.8843 7.04918 90.6543 7.37429 91.3088 7.79351C91.9633 8.20418 92.4703 8.69185 92.8296 9.25651C93.189 9.81265 93.3686 10.4243 93.3686 11.0917C93.3686 11.759 93.189 12.375 92.8296 12.9397C92.4703 13.5043 91.9633 13.992 91.3088 14.4027C90.6543 14.8133 89.8843 15.1342 88.9988 15.3652C88.1262 15.5962 87.1701 15.7117 86.1306 15.7117ZM86.1113 14.2487C86.7915 14.2487 87.4203 14.1717 87.9978 14.0177C88.5753 13.8637 89.0758 13.6455 89.4993 13.3632C89.9228 13.0723 90.2501 12.7387 90.4811 12.3622C90.725 11.9772 90.8468 11.5537 90.8468 11.0917C90.8468 10.6297 90.725 10.2105 90.4811 9.83401C90.2501 9.44901 89.9228 9.11535 89.4993 8.83301C89.0758 8.54213 88.5753 8.31968 87.9978 8.16568C87.4203 8.01168 86.7915 7.93468 86.1113 7.93468C85.4312 7.93468 84.8023 8.01168 84.2248 8.16568C83.6602 8.31968 83.1597 8.54213 82.7233 8.83301C82.2998 9.11535 81.9662 9.44901 81.7223 9.83401C81.4913 10.2105 81.3758 10.6297 81.3758 11.0917C81.3758 11.5452 81.4913 11.9643 81.7223 12.3493C81.9662 12.7343 82.2998 13.0723 82.7233 13.3632C83.1468 13.6455 83.6473 13.8637 84.2248 14.0177C84.8023 14.1717 85.4312 14.2487 86.1113 14.2487ZM96.0212 15.5833V6.60001H98.081L106.532 13.5172H105.511V6.60001H107.995V15.5833H105.935L97.4842 8.66618H98.5045V15.5833H96.0212Z" fill="#D0DCE7"/>
<g opacity="0.5">
<path d="M14.104 10.3649C13.7674 10.6024 13.4476 10.8282 13.1279 11.054C13.0934 11.0412 13.0589 11.0284 13.0244 11.0157C13.0142 10.9618 12.9951 10.9079 12.995 10.854C12.9932 10.052 13.0003 9.2501 12.9861 8.44825C12.9843 8.34887 12.908 8.2287 12.8061 8.15533C12.4329 7.88674 12.0351 7.63325 11.6443 7.37565C11.5773 7.33155 11.499 7.29514 11.3486 7.21287C11.3486 7.35728 11.3486 7.4366 11.3486 7.51592C11.3486 8.97467 11.3532 10.4334 11.3393 11.8921C11.3383 12.0039 11.2446 12.1375 11.1296 12.2221C10.7764 12.4822 10.3925 12.7237 10.0191 12.9714C9.94297 13.0219 9.86032 13.068 9.72205 13.1515C9.72205 10.2816 9.72205 7.47116 9.72205 4.63684C9.79265 4.66301 9.85482 4.67559 9.89535 4.70258C11.4184 5.71689 12.9421 6.73085 14.4553 7.75173C14.5591 7.82183 14.631 7.94431 14.6347 8.04383C14.6533 8.53232 14.6075 9.0229 14.6562 9.50952C14.6922 9.86821 14.5552 10.1439 14.104 10.3649Z" fill="#D0DCE7"/>
<path d="M17.2989 9.33256C17.5045 9.19891 17.6924 9.07649 17.9127 8.93298C17.9127 11.7741 17.9127 14.5939 17.9127 17.4492C17.2516 17.007 16.6188 16.5831 15.9851 16.16C15.0872 15.5607 14.1911 14.9601 13.288 14.3643C13.1418 14.2679 13.0689 14.1748 13.0726 14.03C13.0879 13.427 13.0694 12.8237 13.0867 12.2208C13.0897 12.1144 13.167 11.987 13.274 11.9079C13.6031 11.6646 13.9626 11.4394 14.312 11.2082C14.3891 11.1572 14.473 11.1106 14.6075 11.0296C14.6254 11.1344 14.6428 11.1895 14.643 11.2446C14.6449 11.9928 14.6516 12.7411 14.6391 13.4892C14.6361 13.6756 14.6981 13.8136 14.9114 13.9489C15.3723 14.2412 15.7981 14.5581 16.2384 14.8649C16.278 14.8514 16.3177 14.838 16.3575 14.8246C16.3627 14.7473 16.3724 14.67 16.3724 14.5927C16.373 13.1192 16.3762 11.6458 16.3665 10.1723C16.3654 10.0149 16.4173 9.90025 16.5988 9.79493C16.8399 9.65495 17.055 9.49508 17.2989 9.33256Z" fill="#D0DCE7"/>
</g>
</svg>
