<svg width="101" height="100" viewBox="0 0 101 100" fill="none" xmlns="http://www.w3.org/2000/svg">
<g filter="url(#filter0_d_4317_21092)">
<path fill-rule="evenodd" clip-rule="evenodd" d="M32.4072 37.2693L31.4768 28.8897C31.3589 27.8284 31.3589 26.7573 31.4768 25.6959L31.5438 25.098C31.9179 21.7464 33.5143 18.6503 36.0277 16.4018C38.5411 14.1533 41.7952 12.9102 45.1676 12.9102C48.54 12.9102 51.7941 14.1533 54.3075 16.4018C56.8209 18.6503 58.4173 21.7464 58.7913 25.098L58.8584 25.6959C58.9751 26.7576 58.9751 27.828 58.8584 28.8897L58.0388 36.2659C58.0073 36.5197 57.8964 36.757 57.722 36.944C57.5476 37.131 57.3186 37.2581 57.0676 37.3072C54.2164 37.8949 51.5248 39.0886 49.1751 40.8072C48.9597 40.9677 48.697 41.0519 48.4284 41.0463C43.8578 40.9209 39.2837 41.0582 34.7288 41.4576L31.4184 41.7493C30.6751 41.815 29.9754 42.129 29.4321 42.6405C28.8888 43.1521 28.5334 43.8316 28.423 44.5697C27.4541 51.0788 27.4541 57.6955 28.423 64.2047C28.5334 64.9427 28.8888 65.6222 29.4321 66.1338C29.9754 66.6454 30.6751 66.9593 31.4184 67.0251L34.7288 67.3168C37.488 67.5588 40.253 67.7047 43.0209 67.7543C43.2205 67.7595 43.4156 67.8139 43.5891 67.9126C43.7626 68.0113 43.9091 68.1513 44.0155 68.3201C44.6543 69.3118 45.3747 70.2451 46.1738 71.1143C46.5238 71.4993 46.2672 72.1438 45.7451 72.1468C41.9404 72.1647 38.1369 72.007 34.3468 71.6743L31.0363 71.3826C29.3137 71.2313 27.6922 70.5045 26.4329 69.3193C25.1737 68.1341 24.35 66.5596 24.0947 64.8493C23.0622 57.9128 23.0622 50.8616 24.0947 43.9251C24.35 42.2148 25.1737 40.6402 26.4329 39.4551C27.6922 38.2699 29.3137 37.5431 31.0363 37.3918L32.4072 37.2693ZM44.0768 17.3455C45.2991 17.2019 46.5377 17.3013 47.7214 17.6383C48.9051 17.9752 50.0105 18.5429 50.9739 19.3087C51.9373 20.0745 52.7398 21.0233 53.3351 22.1005C53.9304 23.1776 54.3068 24.3619 54.4426 25.5851L54.5097 26.183C54.5913 26.9209 54.5913 27.6705 54.5097 28.4113L53.5647 36.9134C47.9734 36.5343 42.3647 36.5343 36.7705 36.9134L35.8255 28.4113C35.7432 27.6708 35.7432 26.9235 35.8255 26.183L35.8926 25.5851C36.1252 23.4891 37.0609 21.5336 38.5471 20.0374C40.0332 18.5411 41.9823 17.5923 44.0768 17.3455Z" fill="url(#paint0_linear_4317_21092)"/>
<path fill-rule="evenodd" clip-rule="evenodd" d="M32.4072 37.2693L31.4768 28.8897C31.3589 27.8284 31.3589 26.7573 31.4768 25.6959L31.5438 25.098C31.9179 21.7464 33.5143 18.6503 36.0277 16.4018C38.5411 14.1533 41.7952 12.9102 45.1676 12.9102C48.54 12.9102 51.7941 14.1533 54.3075 16.4018C56.8209 18.6503 58.4173 21.7464 58.7913 25.098L58.8584 25.6959C58.9751 26.7576 58.9751 27.828 58.8584 28.8897L58.0388 36.2659C58.0073 36.5197 57.8964 36.757 57.722 36.944C57.5476 37.131 57.3186 37.2581 57.0676 37.3072C54.2164 37.8949 51.5248 39.0886 49.1751 40.8072C48.9597 40.9677 48.697 41.0519 48.4284 41.0463C43.8578 40.9209 39.2837 41.0582 34.7288 41.4576L31.4184 41.7493C30.6751 41.815 29.9754 42.129 29.4321 42.6405C28.8888 43.1521 28.5334 43.8316 28.423 44.5697C27.4541 51.0788 27.4541 57.6955 28.423 64.2047C28.5334 64.9427 28.8888 65.6222 29.4321 66.1338C29.9754 66.6454 30.6751 66.9593 31.4184 67.0251L34.7288 67.3168C37.488 67.5588 40.253 67.7047 43.0209 67.7543C43.2205 67.7595 43.4156 67.8139 43.5891 67.9126C43.7626 68.0113 43.9091 68.1513 44.0155 68.3201C44.6543 69.3118 45.3747 70.2451 46.1738 71.1143C46.5238 71.4993 46.2672 72.1438 45.7451 72.1468C41.9404 72.1647 38.1369 72.007 34.3468 71.6743L31.0363 71.3826C29.3137 71.2313 27.6922 70.5045 26.4329 69.3193C25.1737 68.1341 24.35 66.5596 24.0947 64.8493C23.0622 57.9128 23.0622 50.8616 24.0947 43.9251C24.35 42.2148 25.1737 40.6402 26.4329 39.4551C27.6922 38.2699 29.3137 37.5431 31.0363 37.3918L32.4072 37.2693ZM44.0768 17.3455C45.2991 17.2019 46.5377 17.3013 47.7214 17.6383C48.9051 17.9752 50.0105 18.5429 50.9739 19.3087C51.9373 20.0745 52.7398 21.0233 53.3351 22.1005C53.9304 23.1776 54.3068 24.3619 54.4426 25.5851L54.5097 26.183C54.5913 26.9209 54.5913 27.6705 54.5097 28.4113L53.5647 36.9134C47.9734 36.5343 42.3647 36.5343 36.7705 36.9134L35.8255 28.4113C35.7432 27.6708 35.7432 26.9235 35.8255 26.183L35.8926 25.5851C36.1252 23.4891 37.0609 21.5336 38.5471 20.0374C40.0332 18.5411 41.9823 17.5923 44.0768 17.3455Z" fill="black" fill-opacity="0.1"/>
<path fill-rule="evenodd" clip-rule="evenodd" d="M32.4072 37.2693L31.4768 28.8897C31.3589 27.8284 31.3589 26.7573 31.4768 25.6959L31.5438 25.098C31.9179 21.7464 33.5143 18.6503 36.0277 16.4018C38.5411 14.1533 41.7952 12.9102 45.1676 12.9102C48.54 12.9102 51.7941 14.1533 54.3075 16.4018C56.8209 18.6503 58.4173 21.7464 58.7913 25.098L58.8584 25.6959C58.9751 26.7576 58.9751 27.828 58.8584 28.8897L58.0388 36.2659C58.0073 36.5197 57.8964 36.757 57.722 36.944C57.5476 37.131 57.3186 37.2581 57.0676 37.3072C54.2164 37.8949 51.5248 39.0886 49.1751 40.8072C48.9597 40.9677 48.697 41.0519 48.4284 41.0463C43.8578 40.9209 39.2837 41.0582 34.7288 41.4576L31.4184 41.7493C30.6751 41.815 29.9754 42.129 29.4321 42.6405C28.8888 43.1521 28.5334 43.8316 28.423 44.5697C27.4541 51.0788 27.4541 57.6955 28.423 64.2047C28.5334 64.9427 28.8888 65.6222 29.4321 66.1338C29.9754 66.6454 30.6751 66.9593 31.4184 67.0251L34.7288 67.3168C37.488 67.5588 40.253 67.7047 43.0209 67.7543C43.2205 67.7595 43.4156 67.8139 43.5891 67.9126C43.7626 68.0113 43.9091 68.1513 44.0155 68.3201C44.6543 69.3118 45.3747 70.2451 46.1738 71.1143C46.5238 71.4993 46.2672 72.1438 45.7451 72.1468C41.9404 72.1647 38.1369 72.007 34.3468 71.6743L31.0363 71.3826C29.3137 71.2313 27.6922 70.5045 26.4329 69.3193C25.1737 68.1341 24.35 66.5596 24.0947 64.8493C23.0622 57.9128 23.0622 50.8616 24.0947 43.9251C24.35 42.2148 25.1737 40.6402 26.4329 39.4551C27.6922 38.2699 29.3137 37.5431 31.0363 37.3918L32.4072 37.2693ZM44.0768 17.3455C45.2991 17.2019 46.5377 17.3013 47.7214 17.6383C48.9051 17.9752 50.0105 18.5429 50.9739 19.3087C51.9373 20.0745 52.7398 21.0233 53.3351 22.1005C53.9304 23.1776 54.3068 24.3619 54.4426 25.5851L54.5097 26.183C54.5913 26.9209 54.5913 27.6705 54.5097 28.4113L53.5647 36.9134C47.9734 36.5343 42.3647 36.5343 36.7705 36.9134L35.8255 28.4113C35.7432 27.6708 35.7432 26.9235 35.8255 26.183L35.8926 25.5851C36.1252 23.4891 37.0609 21.5336 38.5471 20.0374C40.0332 18.5411 41.9823 17.5923 44.0768 17.3455Z" fill="white" fill-opacity="0.1"/>
<path d="M63.3965 52.9297C63.3965 52.3495 63.166 51.7931 62.7558 51.3829C62.3455 50.9727 61.7891 50.7422 61.209 50.7422C60.6288 50.7422 60.0724 50.9727 59.6622 51.3829C59.252 51.7931 59.0215 52.3495 59.0215 52.9297V58.1009C59.0215 58.8009 59.3569 59.4572 59.9227 59.8684L62.8394 61.9889C63.0713 62.1639 63.3358 62.2909 63.6173 62.3626C63.8989 62.4343 64.1919 62.4491 64.4792 62.4063C64.7666 62.3635 65.0425 62.2639 65.291 62.1133C65.5394 61.9627 65.7554 61.7641 65.9262 61.5292C66.0971 61.2942 66.2194 61.0275 66.2861 60.7447C66.3528 60.462 66.3625 60.1687 66.3146 59.8822C66.2667 59.5956 66.1622 59.3215 66.0072 59.0757C65.8523 58.83 65.6499 58.6176 65.4119 58.4509L63.3965 56.9868V52.9297Z" fill="url(#paint1_linear_4317_21092)"/>
<path d="M63.3965 52.9297C63.3965 52.3495 63.166 51.7931 62.7558 51.3829C62.3455 50.9727 61.7891 50.7422 61.209 50.7422C60.6288 50.7422 60.0724 50.9727 59.6622 51.3829C59.252 51.7931 59.0215 52.3495 59.0215 52.9297V58.1009C59.0215 58.8009 59.3569 59.4572 59.9227 59.8684L62.8394 61.9889C63.0713 62.1639 63.3358 62.2909 63.6173 62.3626C63.8989 62.4343 64.1919 62.4491 64.4792 62.4063C64.7666 62.3635 65.0425 62.2639 65.291 62.1133C65.5394 61.9627 65.7554 61.7641 65.9262 61.5292C66.0971 61.2942 66.2194 61.0275 66.2861 60.7447C66.3528 60.462 66.3625 60.1687 66.3146 59.8822C66.2667 59.5956 66.1622 59.3215 66.0072 59.0757C65.8523 58.83 65.6499 58.6176 65.4119 58.4509L63.3965 56.9868V52.9297Z" fill="black" fill-opacity="0.1"/>
<path d="M63.3965 52.9297C63.3965 52.3495 63.166 51.7931 62.7558 51.3829C62.3455 50.9727 61.7891 50.7422 61.209 50.7422C60.6288 50.7422 60.0724 50.9727 59.6622 51.3829C59.252 51.7931 59.0215 52.3495 59.0215 52.9297V58.1009C59.0215 58.8009 59.3569 59.4572 59.9227 59.8684L62.8394 61.9889C63.0713 62.1639 63.3358 62.2909 63.6173 62.3626C63.8989 62.4343 64.1919 62.4491 64.4792 62.4063C64.7666 62.3635 65.0425 62.2639 65.291 62.1133C65.5394 61.9627 65.7554 61.7641 65.9262 61.5292C66.0971 61.2942 66.2194 61.0275 66.2861 60.7447C66.3528 60.462 66.3625 60.1687 66.3146 59.8822C66.2667 59.5956 66.1622 59.3215 66.0072 59.0757C65.8523 58.83 65.6499 58.6176 65.4119 58.4509L63.3965 56.9868V52.9297Z" fill="white" fill-opacity="0.1"/>
<path fill-rule="evenodd" clip-rule="evenodd" d="M61.2077 73.3451C65.4622 73.3451 69.5425 71.655 72.5509 68.6466C75.5592 65.6382 77.2493 61.5579 77.2493 57.3034C77.2493 53.0489 75.5592 48.9686 72.5509 45.9602C69.5425 42.9518 65.4622 41.2617 61.2077 41.2617C56.9532 41.2617 52.8729 42.9518 49.8645 45.9602C46.8561 48.9686 45.166 53.0489 45.166 57.3034C45.166 61.5579 46.8561 65.6382 49.8645 68.6466C52.8729 71.655 56.9532 73.3451 61.2077 73.3451ZM61.2077 68.9701C64.3019 68.9701 67.2693 67.7409 69.4573 65.553C71.6452 63.365 72.8743 60.3976 72.8743 57.3034C72.8743 54.2092 71.6452 51.2417 69.4573 49.0538C67.2693 46.8659 64.3019 45.6367 61.2077 45.6367C58.1135 45.6367 55.146 46.8659 52.9581 49.0538C50.7702 51.2417 49.541 54.2092 49.541 57.3034C49.541 60.3976 50.7702 63.365 52.9581 65.553C55.146 67.7409 58.1135 68.9701 61.2077 68.9701Z" fill="url(#paint2_linear_4317_21092)"/>
<path fill-rule="evenodd" clip-rule="evenodd" d="M61.2077 73.3451C65.4622 73.3451 69.5425 71.655 72.5509 68.6466C75.5592 65.6382 77.2493 61.5579 77.2493 57.3034C77.2493 53.0489 75.5592 48.9686 72.5509 45.9602C69.5425 42.9518 65.4622 41.2617 61.2077 41.2617C56.9532 41.2617 52.8729 42.9518 49.8645 45.9602C46.8561 48.9686 45.166 53.0489 45.166 57.3034C45.166 61.5579 46.8561 65.6382 49.8645 68.6466C52.8729 71.655 56.9532 73.3451 61.2077 73.3451ZM61.2077 68.9701C64.3019 68.9701 67.2693 67.7409 69.4573 65.553C71.6452 63.365 72.8743 60.3976 72.8743 57.3034C72.8743 54.2092 71.6452 51.2417 69.4573 49.0538C67.2693 46.8659 64.3019 45.6367 61.2077 45.6367C58.1135 45.6367 55.146 46.8659 52.9581 49.0538C50.7702 51.2417 49.541 54.2092 49.541 57.3034C49.541 60.3976 50.7702 63.365 52.9581 65.553C55.146 67.7409 58.1135 68.9701 61.2077 68.9701Z" fill="black" fill-opacity="0.1"/>
<path fill-rule="evenodd" clip-rule="evenodd" d="M61.2077 73.3451C65.4622 73.3451 69.5425 71.655 72.5509 68.6466C75.5592 65.6382 77.2493 61.5579 77.2493 57.3034C77.2493 53.0489 75.5592 48.9686 72.5509 45.9602C69.5425 42.9518 65.4622 41.2617 61.2077 41.2617C56.9532 41.2617 52.8729 42.9518 49.8645 45.9602C46.8561 48.9686 45.166 53.0489 45.166 57.3034C45.166 61.5579 46.8561 65.6382 49.8645 68.6466C52.8729 71.655 56.9532 73.3451 61.2077 73.3451ZM61.2077 68.9701C64.3019 68.9701 67.2693 67.7409 69.4573 65.553C71.6452 63.365 72.8743 60.3976 72.8743 57.3034C72.8743 54.2092 71.6452 51.2417 69.4573 49.0538C67.2693 46.8659 64.3019 45.6367 61.2077 45.6367C58.1135 45.6367 55.146 46.8659 52.9581 49.0538C50.7702 51.2417 49.541 54.2092 49.541 57.3034C49.541 60.3976 50.7702 63.365 52.9581 65.553C55.146 67.7409 58.1135 68.9701 61.2077 68.9701Z" fill="white" fill-opacity="0.1"/>
<circle cx="50.7578" cy="46" r="46" fill="url(#paint3_linear_4317_21092)"/>
<circle cx="50.7578" cy="46" r="46" fill="black" fill-opacity="0.1"/>
</g>
<defs>
<filter id="filter0_d_4317_21092" x="0.757812" y="0" width="100" height="100" filterUnits="userSpaceOnUse" color-interpolation-filters="sRGB">
<feFlood flood-opacity="0" result="BackgroundImageFix"/>
<feColorMatrix in="SourceAlpha" type="matrix" values="0 0 0 0 0 0 0 0 0 0 0 0 0 0 0 0 0 0 127 0" result="hardAlpha"/>
<feOffset dy="4"/>
<feGaussianBlur stdDeviation="2"/>
<feComposite in2="hardAlpha" operator="out"/>
<feColorMatrix type="matrix" values="0 0 0 0 0.109804 0 0 0 0 0.929412 0 0 0 0 0.52549 0 0 0 0.25 0"/>
<feBlend mode="normal" in2="BackgroundImageFix" result="effect1_dropShadow_4317_21092"/>
<feBlend mode="normal" in="SourceGraphic" in2="effect1_dropShadow_4317_21092" result="shape"/>
</filter>
<linearGradient id="paint0_linear_4317_21092" x1="41.1331" y1="12.9102" x2="41.1331" y2="72.1481" gradientUnits="userSpaceOnUse">
<stop stop-color="#0CAF60" stop-opacity="0.5"/>
<stop offset="1" stop-color="#161D26" stop-opacity="0"/>
</linearGradient>
<linearGradient id="paint1_linear_4317_21092" x1="62.683" y1="50.7422" x2="62.683" y2="62.4302" gradientUnits="userSpaceOnUse">
<stop stop-color="#0CAF60" stop-opacity="0.5"/>
<stop offset="1" stop-color="#161D26" stop-opacity="0"/>
</linearGradient>
<linearGradient id="paint2_linear_4317_21092" x1="61.2077" y1="41.2617" x2="61.2077" y2="73.3451" gradientUnits="userSpaceOnUse">
<stop stop-color="#0CAF60" stop-opacity="0.5"/>
<stop offset="1" stop-color="#161D26" stop-opacity="0"/>
</linearGradient>
<linearGradient id="paint3_linear_4317_21092" x1="50.7578" y1="0" x2="50.7578" y2="92" gradientUnits="userSpaceOnUse">
<stop stop-color="#0CAF60" stop-opacity="0.5"/>
<stop offset="1" stop-color="#161D26" stop-opacity="0"/>
</linearGradient>
</defs>
</svg>
