<svg width="104" height="103" viewBox="0 0 104 103" fill="none" xmlns="http://www.w3.org/2000/svg">
<g filter="url(#filter0_d_4317_21105)">
<path d="M74.9753 27.4062H30.2773C27.8611 27.4062 25.9023 29.365 25.9023 31.7812V61.0106C25.9023 63.4269 27.8611 65.3856 30.2773 65.3856H74.9753C77.3915 65.3856 79.3503 63.4269 79.3503 61.0106V31.7812C79.3503 29.365 77.3915 27.4062 74.9753 27.4062Z" stroke="#F8F8F8" stroke-width="0.666667" stroke-linecap="round" stroke-linejoin="round"/>
<path d="M39.2664 47.9272C42.1361 47.9272 44.4624 45.6009 44.4624 42.7312C44.4624 39.8615 42.1361 37.5352 39.2664 37.5352C36.3967 37.5352 34.0703 39.8615 34.0703 42.7312C34.0703 45.6009 36.3967 47.9272 39.2664 47.9272Z" stroke="#F8F8F8" stroke-width="0.666667" stroke-linecap="round" stroke-linejoin="round"/>
<path d="M59.4948 41.8008H69.7017M59.4948 51.8224H69.7017M59.4948 46.8116H73.5983M32.6892 56.7414H46.9561C47.2132 56.7421 47.4651 56.669 47.6818 56.5306C47.8985 56.3922 48.0709 56.1945 48.1785 55.961C48.286 55.7274 48.3242 55.4679 48.2885 55.2133C48.2527 54.9586 48.1446 54.7197 47.9769 54.5247C46.9968 53.3046 45.7553 52.3199 44.3441 51.6433C42.9328 50.9668 41.3877 50.6155 39.8226 50.6155C38.2576 50.6155 36.7124 50.9668 35.3012 51.6433C33.8899 52.3199 32.6485 53.3046 31.6683 54.5247C31.5007 54.7197 31.3925 54.9586 31.3568 55.2133C31.321 55.4679 31.3592 55.7274 31.4668 55.961C31.5743 56.1945 31.7467 56.3922 31.9634 56.5306C32.1802 56.669 32.4321 56.7421 32.6892 56.7414Z" stroke="#F8F8F8" stroke-width="0.666667" stroke-linecap="round" stroke-linejoin="round"/>
<circle cx="52.2578" cy="47.5" r="47.5" fill="url(#paint0_linear_4317_21105)"/>
<circle cx="52.2578" cy="47.5" r="47.5" fill="black" fill-opacity="0.1"/>
</g>
<defs>
<filter id="filter0_d_4317_21105" x="0.757812" y="0" width="103" height="103" filterUnits="userSpaceOnUse" color-interpolation-filters="sRGB">
<feFlood flood-opacity="0" result="BackgroundImageFix"/>
<feColorMatrix in="SourceAlpha" type="matrix" values="0 0 0 0 0 0 0 0 0 0 0 0 0 0 0 0 0 0 127 0" result="hardAlpha"/>
<feOffset dy="4"/>
<feGaussianBlur stdDeviation="2"/>
<feComposite in2="hardAlpha" operator="out"/>
<feColorMatrix type="matrix" values="0 0 0 0 0.109804 0 0 0 0 0.929412 0 0 0 0 0.52549 0 0 0 0.25 0"/>
<feBlend mode="normal" in2="BackgroundImageFix" result="effect1_dropShadow_4317_21105"/>
<feBlend mode="normal" in="SourceGraphic" in2="effect1_dropShadow_4317_21105" result="shape"/>
</filter>
<linearGradient id="paint0_linear_4317_21105" x1="52.2578" y1="0" x2="52.2578" y2="95" gradientUnits="userSpaceOnUse">
<stop stop-color="#0CAF60" stop-opacity="0.5"/>
<stop offset="1" stop-color="#161D26" stop-opacity="0"/>
</linearGradient>
</defs>
</svg>
