<svg width="20" height="21" viewBox="0 0 20 21" fill="none" xmlns="http://www.w3.org/2000/svg">
<g opacity="0.4">
<path d="M9.03317 11.7833H7.78317C6.82484 11.7833 6.04984 10.9833 6.04984 9.99167C6.04984 9.65 6.33317 9.36667 6.67484 9.36667C7.0165 9.36667 7.29984 9.65 7.29984 9.99167C7.29984 10.2917 7.5165 10.5333 7.78317 10.5333H9.03317C9.22484 10.5333 9.37484 10.3583 9.37484 10.1417C9.37484 9.85 9.32484 9.83333 9.13317 9.76667L7.12484 9.06667C6.39984 8.81667 6.0415 8.30833 6.0415 7.51667C6.0415 6.61667 6.75817 5.875 7.63317 5.875H8.88317C9.8415 5.875 10.6165 6.675 10.6165 7.66667C10.6165 8.00833 10.3332 8.29167 9.9915 8.29167C9.64984 8.29167 9.3665 8.00833 9.3665 7.66667C9.3665 7.36667 9.14984 7.125 8.88317 7.125H7.63317C7.4415 7.125 7.2915 7.3 7.2915 7.51667C7.2915 7.80833 7.3415 7.825 7.53317 7.89167L9.5415 8.59167C10.2665 8.85 10.6165 9.35833 10.6165 10.1417C10.6248 11.05 9.90817 11.7833 9.03317 11.7833Z" fill="#E5F3FF"/>
<path d="M8.3335 12.4499C7.99183 12.4499 7.7085 12.1666 7.7085 11.8249V11.2083C7.7085 10.8666 7.99183 10.5833 8.3335 10.5833C8.67516 10.5833 8.9585 10.8666 8.9585 11.2083V11.8249C8.9585 12.1749 8.67516 12.4499 8.3335 12.4499Z" fill="#E5F3FF"/>
<path d="M8.3335 7.11655C7.99183 7.11655 7.7085 6.83322 7.7085 6.49155V5.84155C7.7085 5.49989 7.99183 5.21655 8.3335 5.21655C8.67516 5.21655 8.9585 5.49989 8.9585 5.84155V6.49155C8.9585 6.83322 8.67516 7.11655 8.3335 7.11655Z" fill="#E5F3FF"/>
<path d="M8.32484 16.1001C4.30817 16.1001 1.0415 12.8334 1.0415 8.81678C1.0415 4.80011 4.30817 1.53345 8.32484 1.53345C12.3415 1.53345 15.6082 4.80011 15.6082 8.81678C15.6082 12.8334 12.3332 16.1001 8.32484 16.1001ZM8.32484 2.79178C4.99984 2.79178 2.2915 5.50011 2.2915 8.82511C2.2915 12.1501 4.99984 14.8501 8.32484 14.8501C11.6498 14.8501 14.3582 12.1418 14.3582 8.81678C14.3582 5.49178 11.6498 2.79178 8.32484 2.79178Z" fill="#E5F3FF"/>
<path d="M14.1832 19.4333C12.6415 19.4333 11.1915 18.6833 10.2999 17.4167C10.0999 17.1333 10.1665 16.7417 10.4499 16.5417C10.7332 16.3417 11.1249 16.4083 11.3249 16.6917C11.9832 17.625 13.0499 18.175 14.1832 18.175C16.1165 18.175 17.6832 16.6083 17.6832 14.675C17.6832 13.55 17.1332 12.4833 16.2165 11.825C15.9332 11.625 15.8749 11.2333 16.0749 10.95C16.2749 10.6667 16.6665 10.6083 16.9499 10.8083C18.1915 11.7 18.9332 13.1417 18.9332 14.675C18.9332 17.3083 16.8082 19.4333 14.1832 19.4333Z" fill="#E5F3FF"/>
</g>
</svg>
