<svg width="20" height="21" viewBox="0 0 20 21" fill="none" xmlns="http://www.w3.org/2000/svg">
<g opacity="0.4">
<path d="M12.4749 19.4584H7.47493C2.94993 19.4584 1.0166 17.5251 1.0166 13.0001V8.00008C1.0166 3.47508 2.94993 1.54175 7.47493 1.54175H12.4749C16.9999 1.54175 18.9333 3.47508 18.9333 8.00008V13.0001C18.9333 17.5251 17.0083 19.4584 12.4749 19.4584ZM7.47493 2.79175C3.63327 2.79175 2.2666 4.15841 2.2666 8.00008V13.0001C2.2666 16.8417 3.63327 18.2084 7.47493 18.2084H12.4749C16.3166 18.2084 17.6833 16.8417 17.6833 13.0001V8.00008C17.6833 4.15841 16.3166 2.79175 12.4749 2.79175H7.47493Z" fill="#E5F3FF"/>
<path d="M2.72497 17.5417C2.56663 17.5417 2.4083 17.4834 2.2833 17.3584C2.04163 17.1167 2.04163 16.7167 2.2833 16.475L15.9916 2.7667C16.2333 2.52503 16.6333 2.52503 16.875 2.7667C17.1166 3.00837 17.1166 3.40837 16.875 3.65003L3.16663 17.3584C3.04997 17.4834 2.89163 17.5417 2.72497 17.5417Z" fill="#E5F3FF"/>
<path d="M13.3833 16.1249C13.0416 16.1249 12.7583 15.8416 12.7583 15.4999V11.3333C12.7583 10.9916 13.0416 10.7083 13.3833 10.7083C13.725 10.7083 14.0083 10.9916 14.0083 11.3333V15.4999C14.0083 15.8416 13.725 16.1249 13.3833 16.1249Z" fill="#E5F3FF"/>
<path d="M15.4167 14.0417H11.25C10.9083 14.0417 10.625 13.7584 10.625 13.4167C10.625 13.0751 10.9083 12.7917 11.25 12.7917H15.4167C15.7583 12.7917 16.0417 13.0751 16.0417 13.4167C16.0417 13.7584 15.7583 14.0417 15.4167 14.0417Z" fill="#E5F3FF"/>
<path d="M8.75016 7.375H4.5835C4.24183 7.375 3.9585 7.09167 3.9585 6.75C3.9585 6.40833 4.24183 6.125 4.5835 6.125H8.75016C9.09183 6.125 9.37516 6.40833 9.37516 6.75C9.37516 7.09167 9.09183 7.375 8.75016 7.375Z" fill="#E5F3FF"/>
</g>
</svg>
