<svg width="20" height="21" viewBox="0 0 20 21" fill="none" xmlns="http://www.w3.org/2000/svg">
<g opacity="0.3">
<path d="M18.275 11.2166C18.2583 11.375 18.2333 11.525 18.1917 11.675C17.325 10.9416 16.2 10.5 14.975 10.5C12.2167 10.5 9.975 12.7416 9.975 15.5C9.975 16.725 10.4167 17.85 11.15 18.7166C11 18.7583 10.85 18.7833 10.6917 18.8C9.98333 18.8666 9.25833 18.8333 8.50833 18.7083C5.08333 18.125 2.325 15.35 1.75833 11.9166C0.816667 6.20831 5.68333 1.34164 11.3917 2.28331C14.825 2.84998 17.6 5.60831 18.1833 9.03331C18.3083 9.78331 18.3417 10.5083 18.275 11.2166Z" stroke="#E5F3FF" stroke-width="1.5" stroke-linecap="round" stroke-linejoin="round"/>
<path d="M18.1917 11.675C18.075 12.0833 17.8583 12.45 17.55 12.7583L12.2333 18.075C11.925 18.3833 11.5583 18.6 11.15 18.7167C10.4167 17.85 9.975 16.725 9.975 15.5C9.975 12.7417 12.2167 10.5 14.975 10.5C16.2 10.5 17.325 10.9417 18.1917 11.675Z" stroke="#E5F3FF" stroke-width="1.5" stroke-linecap="round" stroke-linejoin="round"/>
</g>
</svg>
